<mxfile host="Electron" modified="2023-09-25T07:10:21.800Z" agent="Mozilla/5.0 (Windows NT 10.0; Win64; x64) AppleWebKit/537.36 (KHTML, like Gecko) draw.io/21.6.8 Chrome/114.0.5735.289 Electron/25.5.0 Safari/537.36" etag="GGnE43v-77TccfezC56D" version="21.6.8" type="device">
  <diagram name="Page-1" id="I1RVdM0vjpJhr6-jsITi">
    <mxGraphModel dx="1036" dy="623" grid="1" gridSize="10" guides="1" tooltips="1" connect="1" arrows="1" fold="1" page="1" pageScale="1" pageWidth="850" pageHeight="1100" math="0" shadow="0">
      <root>
        <mxCell id="0" />
        <mxCell id="1" parent="0" />
        <mxCell id="LPs0NElh9YS4OrEKBFE8-1" value="" style="shape=umlLifeline;perimeter=lifelinePerimeter;whiteSpace=wrap;html=1;container=1;dropTarget=0;collapsible=0;recursiveResize=0;outlineConnect=0;portConstraint=eastwest;newEdgeStyle={&quot;edgeStyle&quot;:&quot;elbowEdgeStyle&quot;,&quot;elbow&quot;:&quot;vertical&quot;,&quot;curved&quot;:0,&quot;rounded&quot;:0};participant=umlActor;" parent="1" vertex="1">
          <mxGeometry x="110" y="110" width="20" height="360" as="geometry" />
        </mxCell>
        <mxCell id="LPs0NElh9YS4OrEKBFE8-15" style="edgeStyle=elbowEdgeStyle;rounded=0;orthogonalLoop=1;jettySize=auto;html=1;elbow=vertical;curved=0;" parent="LPs0NElh9YS4OrEKBFE8-1" source="LPs0NElh9YS4OrEKBFE8-8" edge="1">
          <mxGeometry relative="1" as="geometry">
            <mxPoint x="240" y="150" as="targetPoint" />
          </mxGeometry>
        </mxCell>
        <mxCell id="LPs0NElh9YS4OrEKBFE8-8" value="" style="html=1;points=[];perimeter=orthogonalPerimeter;outlineConnect=0;targetShapes=umlLifeline;portConstraint=eastwest;newEdgeStyle={&quot;edgeStyle&quot;:&quot;elbowEdgeStyle&quot;,&quot;elbow&quot;:&quot;vertical&quot;,&quot;curved&quot;:0,&quot;rounded&quot;:0};" parent="LPs0NElh9YS4OrEKBFE8-1" vertex="1">
          <mxGeometry x="5" y="70" width="10" height="270" as="geometry" />
        </mxCell>
        <mxCell id="LPs0NElh9YS4OrEKBFE8-2" value="Users" style="text;html=1;align=center;verticalAlign=middle;resizable=0;points=[];autosize=1;strokeColor=none;fillColor=none;" parent="1" vertex="1">
          <mxGeometry x="95" y="140" width="50" height="30" as="geometry" />
        </mxCell>
        <mxCell id="LPs0NElh9YS4OrEKBFE8-3" value=":BanglaBasket" style="html=1;whiteSpace=wrap;" parent="1" vertex="1">
          <mxGeometry x="300" y="110" width="110" height="40" as="geometry" />
        </mxCell>
        <mxCell id="LPs0NElh9YS4OrEKBFE8-4" value="Database" style="html=1;whiteSpace=wrap;" parent="1" vertex="1">
          <mxGeometry x="530" y="110" width="110" height="40" as="geometry" />
        </mxCell>
        <mxCell id="LPs0NElh9YS4OrEKBFE8-7" value="" style="endArrow=none;dashed=1;html=1;strokeWidth=1;rounded=0;entryX=0.5;entryY=1;entryDx=0;entryDy=0;" parent="1" source="LPs0NElh9YS4OrEKBFE8-11" target="LPs0NElh9YS4OrEKBFE8-3" edge="1">
          <mxGeometry width="50" height="50" relative="1" as="geometry">
            <mxPoint x="360" y="540" as="sourcePoint" />
            <mxPoint x="370" y="230" as="targetPoint" />
          </mxGeometry>
        </mxCell>
        <mxCell id="LPs0NElh9YS4OrEKBFE8-9" value="" style="endArrow=classic;html=1;rounded=0;" parent="1" edge="1">
          <mxGeometry width="50" height="50" relative="1" as="geometry">
            <mxPoint x="125" y="196" as="sourcePoint" />
            <mxPoint x="350" y="196" as="targetPoint" />
          </mxGeometry>
        </mxCell>
        <mxCell id="LPs0NElh9YS4OrEKBFE8-10" value="Request login form()" style="text;html=1;align=center;verticalAlign=middle;resizable=0;points=[];autosize=1;strokeColor=none;fillColor=none;" parent="1" vertex="1">
          <mxGeometry x="155" y="168" width="130" height="30" as="geometry" />
        </mxCell>
        <mxCell id="LPs0NElh9YS4OrEKBFE8-12" value="" style="endArrow=none;dashed=1;html=1;strokeWidth=1;rounded=0;entryX=0.5;entryY=1;entryDx=0;entryDy=0;" parent="1" target="LPs0NElh9YS4OrEKBFE8-11" edge="1">
          <mxGeometry width="50" height="50" relative="1" as="geometry">
            <mxPoint x="360" y="470" as="sourcePoint" />
            <mxPoint x="355" y="150" as="targetPoint" />
          </mxGeometry>
        </mxCell>
        <mxCell id="LPs0NElh9YS4OrEKBFE8-13" style="edgeStyle=elbowEdgeStyle;rounded=0;orthogonalLoop=1;jettySize=auto;html=1;elbow=vertical;curved=0;dashed=1;" parent="1" edge="1">
          <mxGeometry relative="1" as="geometry">
            <mxPoint x="350" y="226" as="sourcePoint" />
            <mxPoint x="119.5" y="226" as="targetPoint" />
          </mxGeometry>
        </mxCell>
        <mxCell id="LPs0NElh9YS4OrEKBFE8-21" style="edgeStyle=elbowEdgeStyle;rounded=0;orthogonalLoop=1;jettySize=auto;html=1;elbow=vertical;curved=0;" parent="1" edge="1">
          <mxGeometry relative="1" as="geometry">
            <mxPoint x="360" y="284" as="sourcePoint" />
            <mxPoint x="580" y="284" as="targetPoint" />
          </mxGeometry>
        </mxCell>
        <mxCell id="LPs0NElh9YS4OrEKBFE8-11" value="" style="html=1;points=[];perimeter=orthogonalPerimeter;outlineConnect=0;targetShapes=umlLifeline;portConstraint=eastwest;newEdgeStyle={&quot;edgeStyle&quot;:&quot;elbowEdgeStyle&quot;,&quot;elbow&quot;:&quot;vertical&quot;,&quot;curved&quot;:0,&quot;rounded&quot;:0};" parent="1" vertex="1">
          <mxGeometry x="350" y="180" width="10" height="110" as="geometry" />
        </mxCell>
        <mxCell id="LPs0NElh9YS4OrEKBFE8-14" value="display login form" style="text;html=1;align=center;verticalAlign=middle;resizable=0;points=[];autosize=1;strokeColor=none;fillColor=none;" parent="1" vertex="1">
          <mxGeometry x="160" y="198" width="120" height="30" as="geometry" />
        </mxCell>
        <mxCell id="LPs0NElh9YS4OrEKBFE8-16" value="input information()" style="text;html=1;align=center;verticalAlign=middle;resizable=0;points=[];autosize=1;strokeColor=none;fillColor=none;" parent="1" vertex="1">
          <mxGeometry x="150" y="238" width="120" height="30" as="geometry" />
        </mxCell>
        <mxCell id="LPs0NElh9YS4OrEKBFE8-17" value="" style="endArrow=none;dashed=1;html=1;strokeWidth=1;rounded=0;entryX=0.5;entryY=1;entryDx=0;entryDy=0;" parent="1" source="LPs0NElh9YS4OrEKBFE8-25" edge="1">
          <mxGeometry width="50" height="50" relative="1" as="geometry">
            <mxPoint x="590" y="640" as="sourcePoint" />
            <mxPoint x="582.5" y="149" as="targetPoint" />
          </mxGeometry>
        </mxCell>
        <mxCell id="LPs0NElh9YS4OrEKBFE8-22" value="verify information()" style="text;html=1;align=center;verticalAlign=middle;resizable=0;points=[];autosize=1;strokeColor=none;fillColor=none;" parent="1" vertex="1">
          <mxGeometry x="405" y="258" width="120" height="30" as="geometry" />
        </mxCell>
        <mxCell id="LPs0NElh9YS4OrEKBFE8-24" value="" style="endArrow=none;dashed=1;html=1;strokeWidth=1;rounded=0;entryX=0.5;entryY=1;entryDx=0;entryDy=0;" parent="1" target="LPs0NElh9YS4OrEKBFE8-25" edge="1">
          <mxGeometry width="50" height="50" relative="1" as="geometry">
            <mxPoint x="585" y="480" as="sourcePoint" />
            <mxPoint x="582.5" y="149" as="targetPoint" />
          </mxGeometry>
        </mxCell>
        <mxCell id="LPs0NElh9YS4OrEKBFE8-25" value="" style="html=1;points=[];perimeter=orthogonalPerimeter;outlineConnect=0;targetShapes=umlLifeline;portConstraint=eastwest;newEdgeStyle={&quot;edgeStyle&quot;:&quot;elbowEdgeStyle&quot;,&quot;elbow&quot;:&quot;vertical&quot;,&quot;curved&quot;:0,&quot;rounded&quot;:0};" parent="1" vertex="1">
          <mxGeometry x="580" y="173" width="10" height="267" as="geometry" />
        </mxCell>
        <mxCell id="LPs0NElh9YS4OrEKBFE8-26" value="if information valid" style="shape=umlFrame;whiteSpace=wrap;html=1;pointerEvents=0;width=130;height=20;" parent="1" vertex="1">
          <mxGeometry x="110" y="312" width="490" height="70" as="geometry" />
        </mxCell>
        <mxCell id="LPs0NElh9YS4OrEKBFE8-27" value="" style="html=1;points=[];perimeter=orthogonalPerimeter;outlineConnect=0;targetShapes=umlLifeline;portConstraint=eastwest;newEdgeStyle={&quot;edgeStyle&quot;:&quot;elbowEdgeStyle&quot;,&quot;elbow&quot;:&quot;vertical&quot;,&quot;curved&quot;:0,&quot;rounded&quot;:0};" parent="1" vertex="1">
          <mxGeometry x="350" y="323" width="10" height="46" as="geometry" />
        </mxCell>
        <mxCell id="LPs0NElh9YS4OrEKBFE8-28" value="" style="html=1;verticalAlign=bottom;endArrow=open;dashed=1;endSize=8;edgeStyle=elbowEdgeStyle;elbow=vertical;curved=0;rounded=0;" parent="1" edge="1">
          <mxGeometry y="-50" relative="1" as="geometry">
            <mxPoint x="580" y="338" as="sourcePoint" />
            <mxPoint x="360" y="337.5" as="targetPoint" />
            <mxPoint as="offset" />
          </mxGeometry>
        </mxCell>
        <mxCell id="LPs0NElh9YS4OrEKBFE8-29" value="information valid" style="text;html=1;align=center;verticalAlign=middle;resizable=0;points=[];autosize=1;strokeColor=none;fillColor=none;" parent="1" vertex="1">
          <mxGeometry x="405" y="311" width="110" height="30" as="geometry" />
        </mxCell>
        <mxCell id="LPs0NElh9YS4OrEKBFE8-30" value="" style="html=1;verticalAlign=bottom;endArrow=open;dashed=1;endSize=8;edgeStyle=elbowEdgeStyle;elbow=vertical;curved=0;rounded=0;" parent="1" edge="1">
          <mxGeometry y="-50" relative="1" as="geometry">
            <mxPoint x="350" y="355" as="sourcePoint" />
            <mxPoint x="125" y="354.5" as="targetPoint" />
            <mxPoint as="offset" />
            <Array as="points">
              <mxPoint x="145" y="355" />
            </Array>
          </mxGeometry>
        </mxCell>
        <mxCell id="LPs0NElh9YS4OrEKBFE8-31" value="login success()" style="text;html=1;align=center;verticalAlign=middle;resizable=0;points=[];autosize=1;strokeColor=none;fillColor=none;" parent="1" vertex="1">
          <mxGeometry x="170" y="330" width="100" height="30" as="geometry" />
        </mxCell>
        <mxCell id="LPs0NElh9YS4OrEKBFE8-33" value="else information unvalid" style="shape=umlFrame;whiteSpace=wrap;html=1;pointerEvents=0;width=150;height=20;" parent="1" vertex="1">
          <mxGeometry x="110" y="382" width="490" height="80" as="geometry" />
        </mxCell>
        <mxCell id="LPs0NElh9YS4OrEKBFE8-34" value="" style="html=1;points=[];perimeter=orthogonalPerimeter;outlineConnect=0;targetShapes=umlLifeline;portConstraint=eastwest;newEdgeStyle={&quot;edgeStyle&quot;:&quot;elbowEdgeStyle&quot;,&quot;elbow&quot;:&quot;vertical&quot;,&quot;curved&quot;:0,&quot;rounded&quot;:0};" parent="1" vertex="1">
          <mxGeometry x="352" y="397" width="10" height="46" as="geometry" />
        </mxCell>
        <mxCell id="LPs0NElh9YS4OrEKBFE8-35" value="" style="html=1;verticalAlign=bottom;endArrow=open;dashed=1;endSize=8;edgeStyle=elbowEdgeStyle;elbow=vertical;curved=0;rounded=0;" parent="1" edge="1">
          <mxGeometry y="-50" relative="1" as="geometry">
            <mxPoint x="581" y="408" as="sourcePoint" />
            <mxPoint x="361" y="407.5" as="targetPoint" />
            <mxPoint as="offset" />
          </mxGeometry>
        </mxCell>
        <mxCell id="LPs0NElh9YS4OrEKBFE8-36" value="information unvalid" style="text;html=1;align=center;verticalAlign=middle;resizable=0;points=[];autosize=1;strokeColor=none;fillColor=none;" parent="1" vertex="1">
          <mxGeometry x="401" y="381" width="120" height="30" as="geometry" />
        </mxCell>
        <mxCell id="LPs0NElh9YS4OrEKBFE8-37" value="" style="html=1;verticalAlign=bottom;endArrow=open;dashed=1;endSize=8;edgeStyle=elbowEdgeStyle;elbow=vertical;curved=0;rounded=0;" parent="1" edge="1">
          <mxGeometry y="-50" relative="1" as="geometry">
            <mxPoint x="350" y="435" as="sourcePoint" />
            <mxPoint x="125" y="434.5" as="targetPoint" />
            <mxPoint as="offset" />
            <Array as="points">
              <mxPoint x="145" y="435" />
            </Array>
          </mxGeometry>
        </mxCell>
        <mxCell id="LPs0NElh9YS4OrEKBFE8-38" value="error message()" style="text;html=1;align=center;verticalAlign=middle;resizable=0;points=[];autosize=1;strokeColor=none;fillColor=none;" parent="1" vertex="1">
          <mxGeometry x="165" y="410" width="110" height="30" as="geometry" />
        </mxCell>
        <mxCell id="krKU1BvmlfOiPdxUwo4Q-1" value="" style="swimlane;startSize=0;" vertex="1" parent="1">
          <mxGeometry x="60" y="58" width="630" height="492" as="geometry" />
        </mxCell>
        <mxCell id="krKU1BvmlfOiPdxUwo4Q-2" value="&lt;font style=&quot;font-size: 16px;&quot;&gt;Figure:User Login Sequance Diagram&lt;/font&gt;" style="text;html=1;align=center;verticalAlign=middle;resizable=0;points=[];autosize=1;strokeColor=none;fillColor=none;" vertex="1" parent="krKU1BvmlfOiPdxUwo4Q-1">
          <mxGeometry x="160" y="442" width="290" height="30" as="geometry" />
        </mxCell>
      </root>
    </mxGraphModel>
  </diagram>
</mxfile>
